# Blender 4.2.2 LTS
# www.blender.org
mtllib mini_leaves.mtl
o Plane
v -0.290934 0.519366 0.877848
v 0.948744 0.472955 0.034613
v -0.948744 -0.472955 -0.034613
v 0.290934 -0.519366 -0.877848
vn -0.3531 0.7493 -0.5603
vt 0.000000 0.000000
vt 1.000000 0.000000
vt 1.000000 1.000000
vt 0.000000 1.000000
s 0
f 1/1/1 2/2/1 4/3/1 3/4/1
o Plane.001
v -0.607234 0.832971 0.249850
v 0.235589 -0.135770 1.025214
v -0.235589 0.135770 -1.025214
v 0.607234 -0.832971 -0.249850
vn 0.7892 0.6057 -0.1012
vt 0.000000 0.000000
vt 1.000000 0.000000
vt 1.000000 1.000000
vt 0.000000 1.000000
s 0
f 5/5/2 6/6/2 8/7/2 7/8/2
o Plane.002
v -0.839011 0.447908 -0.469509
v -0.561957 -0.885273 0.159672
v 0.561957 0.885273 -0.159672
v 0.839011 -0.447908 0.469509
vn -0.3059 0.3536 0.8840
vt 0.000000 0.000000
vt 1.000000 0.000000
vt 1.000000 1.000000
vt 0.000000 1.000000
s 0
f 9/9/3 10/10/3 12/11/3 11/12/3
